<svg width="14" height="15" viewBox="0 0 14 15" fill="none" xmlns="http://www.w3.org/2000/svg">
<path d="M13.0599 12.9394L10.3215 10.1608C11.3997 9.04411 12.0013 7.5519 11.9993 5.99965C11.9993 2.68616 9.31315 0 5.99965 0C2.68616 0 0 2.68616 0 5.99965C0 9.31315 2.68616 11.9993 5.99965 11.9993C7.11138 12.0009 8.20148 11.6922 9.14722 11.1078L11.9993 14C12.14 14.1406 12.3307 14.2197 12.5296 14.2197C12.7285 14.2197 12.9193 14.1406 13.0599 14C13.2006 13.8594 13.2796 13.6686 13.2796 13.4697C13.2796 13.2708 13.2006 13.08 13.0599 12.9394ZM1.19993 5.99965C1.19993 3.34893 3.34893 1.19993 5.99965 1.19993C8.65038 1.19993 10.7994 3.34893 10.7994 5.99965C10.7994 8.65038 8.65038 10.7994 5.99965 10.7994C3.34893 10.7994 1.19993 8.65038 1.19993 5.99965Z" fill="#6D7278"/>
</svg>
